<svg viewBox="0 0 44 44" fill="none" xmlns="http://www.w3.org/2000/svg">
<path d="M35.35 4.46504C34.7101 3.97578 34.0425 3.52085 33.35 3.10299V40.803C34.0425 40.3851 34.7101 39.9302 35.35 39.4409V4.46504Z" fill="white"/>
<path d="M38.2833 36.7469V7.15906C41.8352 11.0662 44 16.2568 44 21.953C44 27.6492 41.8352 32.8398 38.2833 36.7469Z" fill="white"/>
<path d="M28.4167 0.903445C29.0979 1.11086 29.7652 1.35044 30.4167 1.62042V42.2855C29.7652 42.5555 29.0979 42.7951 28.4167 43.0025V0.903445Z" fill="white"/>
<path d="M25.4833 0.227198C24.8259 0.12262 24.1588 0.0471638 23.4833 0.00219398V43.9038C24.1588 43.8588 24.8259 43.7833 25.4833 43.6788V0.227198Z" fill="white"/>
<path d="M18.55 0.221922C19.2074 0.118375 19.8746 0.0439469 20.55 0V43.906C19.8746 43.862 19.2074 43.7876 18.55 43.684V0.221922Z" fill="white"/>
<path d="M15.6167 43.0126C14.9354 42.8064 14.2682 42.5681 13.6167 42.2993V1.60663C14.2682 1.33789 14.9354 1.09953 15.6167 0.893326V43.0126Z" fill="white"/>
<path d="M8.68333 39.4664C9.32339 39.9538 9.99097 40.4069 10.6833 40.823V3.08292C9.99097 3.49903 9.32339 3.95217 8.68333 4.4396V39.4664Z" fill="white"/>
<path d="M5.75 7.12248C2.17839 11.0337 0 16.239 0 21.953C0 27.667 2.17839 32.8722 5.75 36.7835V7.12248Z" fill="white"/>
</svg>