<svg viewBox="0 0 20 20" fill="none" xmlns="http://www.w3.org/2000/svg">
<path d="M8.87223 15.5384C10.3514 15.538 11.7879 15.0429 12.9531 14.1317L16.6164 17.795L17.7947 16.6167L14.1314 12.9533C15.0431 11.7881 15.5385 10.3512 15.5389 8.87168C15.5389 5.19585 12.5481 2.20502 8.87223 2.20502C5.1964 2.20502 2.20557 5.19585 2.20557 8.87168C2.20557 12.5475 5.1964 15.5384 8.87223 15.5384ZM8.87223 3.87168C11.6297 3.87168 13.8722 6.11418 13.8722 8.87168C13.8722 11.6292 11.6297 13.8717 8.87223 13.8717C6.11473 13.8717 3.87223 11.6292 3.87223 8.87168C3.87223 6.11418 6.11473 3.87168 8.87223 3.87168Z" fill="white"/>
</svg>
