<svg viewBox="0 0 62 57" fill="none" xmlns="http://www.w3.org/2000/svg">
<path fill-rule="evenodd" clip-rule="evenodd" d="M21.4567 0.25H61.7499V44.5928H61.7477C61.7491 44.6655 61.7498 44.7383 61.7498 44.8113C61.7498 50.8633 56.7717 55.75 50.655 55.75C44.5383 55.75 39.5602 50.8633 39.5602 44.8113C39.5602 38.7593 44.5383 33.8726 50.655 33.8726C54.745 33.8726 58.3258 36.0575 60.2499 39.3146V11.583H22.9567V44.8113H22.9494C22.9543 44.9449 22.9567 45.079 22.9567 45.2137C22.9567 51.2657 17.9786 56.1524 11.8619 56.1524C5.74521 56.1524 0.76709 51.2657 0.76709 45.2137C0.76709 39.1618 5.74521 34.2751 11.8619 34.2751C15.9519 34.2751 19.5327 36.4599 21.4567 39.717V0.25ZM22.9567 10.083H60.2499V1.75H22.9567V10.083ZM50.655 35.3726C45.3451 35.3726 41.0602 39.6092 41.0602 44.8113C41.0602 50.0134 45.3451 54.25 50.655 54.25C55.9649 54.25 60.2498 50.0134 60.2498 44.8113C60.2498 39.6092 55.9649 35.3726 50.655 35.3726ZM11.8619 35.7751C6.55205 35.7751 2.26709 40.0116 2.26709 45.2137C2.26709 50.4159 6.55205 54.6524 11.8619 54.6524C17.1718 54.6524 21.4567 50.4159 21.4567 45.2137C21.4567 40.0116 17.1718 35.7751 11.8619 35.7751Z" fill="white"/>
</svg>
