<svg viewBox="0 0 136 136" xmlns="http://www.w3.org/2000/svg">
  <path
    d="M68 0L68.0132 67.9331L94.0226 5.17617L68.0378 67.9435L116.083 19.9168L68.0565 67.9622L130.824 41.9774L68.0669 67.9868L136 68L68.0669 68.0132L130.824 94.0226L68.0565 68.0378L116.083 116.083L68.0378 68.0565L94.0226 130.824L68.0132 68.0669L68 136L67.9868 68.0669L41.9774 130.824L67.9622 68.0565L19.9168 116.083L67.9435 68.0378L5.17617 94.0226L67.9331 68.0132L0 68L67.9331 67.9868L5.17617 41.9774L67.9435 67.9622L19.9168 19.9168L67.9622 67.9435L41.9774 5.17617L67.9868 67.9331L68 0Z"
    stroke-width="2" />
</svg>